<svg xmlns="http://www.w3.org/2000/svg" viewBox="0 0 206 206"><defs><style>.cls-1{fill:#15263f;}.cls-2{fill:#676c8d;}</style></defs><g id="Layer_2" data-name="Layer 2"><g id="Layer_1-2" data-name="Layer 1"><rect class="cls-1" width="206" height="206" rx="31.06"/><path class="cls-2" d="M70,54.7a10,10,0,0,0-2.43-1.06q-1.32-.36-1.32-.69c0-.24.51-.49,1.64-.73q2.47.21,3.9.42a9.86,9.86,0,0,1,2,.47,1.11,1.11,0,0,1,.63.64,3,3,0,0,1,0,.89l-.06.85L74,63.83c1.8,0,3.47-.09,5-.16L86,63.25a20.49,20.49,0,0,0,2.69-.42,8,8,0,0,0,1.43-.53,4.48,4.48,0,0,1,1.48-.42,14.77,14.77,0,0,1,3,.26,4.56,4.56,0,0,1,2,.79,1,1,0,0,1,.52,1c0,.32-.28.57-.73.74a3.69,3.69,0,0,1-1.75.27q-6.5-.42-16.84-.11-9.07.32-16.31,1a6.32,6.32,0,0,0-1.06.31l-.73.32a3.37,3.37,0,0,1-2,.32A23.61,23.61,0,0,1,53.06,65c-1.05-.52-1.63-.93-1.74-1.21s.41-.39,1.53-.21A64.42,64.42,0,0,0,62,64.2c2.67,0,5.7-.07,9.08-.32v-8C71.05,55.49,70.68,55.08,70,54.7ZM85.53,42.55a1.24,1.24,0,0,0,.47-.1,4.14,4.14,0,0,1,.9-.21,14.65,14.65,0,0,1,2.11,0c1.2.11,1.88.3,2.06.58s0,.51-.37,1c-.14.22-.24.37-.32.48a1.8,1.8,0,0,0-.26.58l-.63,2.27q-1.06,3.86-1.69,5.6a21.58,21.58,0,0,1-2.17,4.69c-.63.74-1,1.08-1.26,1s-.27-.67-.06-1.69a54.22,54.22,0,0,0,1.17-5.54c.35-2.19.61-4.54.79-7.08q-4,.06-9.82.37-6.92.38-10.82.79a7.62,7.62,0,0,0-.9.16,5.9,5.9,0,0,1-.69.21A3.41,3.41,0,0,1,62.2,46a14.65,14.65,0,0,1-3.59-1.48c-1-.53-1.57-.93-1.64-1.22s.65-.38,2.16-.1a84.26,84.26,0,0,0,11.56.26q4.44-.11,12.83-.63h.32l1-.11A2.9,2.9,0,0,0,85.53,42.55ZM72.91,69.74a.92.92,0,0,0-.26-1.11c-.42-.35-.55-.63-.37-.84s.56-.23,1.27-.05a4.87,4.87,0,0,1,2,1.16c.14.17.11.53-.1,1l-.21.53a12.32,12.32,0,0,1,7.49,3.8,7.75,7.75,0,0,1,2.06,6.07,7.87,7.87,0,0,1-3.06,5.55A12.24,12.24,0,0,1,74,88.32a12.94,12.94,0,0,1-7.87-2.58,8.18,8.18,0,0,1-3.22-5.49,7.59,7.59,0,0,1,1.69-5.92,11.35,11.35,0,0,1,6.92-3.74l.47-.16A1.36,1.36,0,0,0,72.91,69.74Zm-5,4.59a6.63,6.63,0,0,0,0,9.51,7.9,7.9,0,0,0,5.91,2.21,7.83,7.83,0,0,0,5.86-2.21,6.77,6.77,0,0,0,0-9.51,7.91,7.91,0,0,0-5.86-2.16A8,8,0,0,0,68,74.33Z"/><path class="cls-2" d="M121.74,66.94q-3.69.16-6,.43a6.13,6.13,0,0,0-.89.26,5.77,5.77,0,0,1-.59.37,2.43,2.43,0,0,1-1.9.37,26.71,26.71,0,0,1-5.64-2.27c-.92-.49-1.32-.88-1.22-1.16s.7-.34,1.8,0a150.67,150.67,0,0,0,17.68.47q7.39-.17,18.69-.79c.56-.11,1-.21,1.42-.32a3.91,3.91,0,0,0,.85-.37,5.62,5.62,0,0,1,1.63-.47,35.36,35.36,0,0,1,4.6.31c1.26.21,1.86.73,1.79,1.53s-.58,1.22-1.63,1.32l-1,0c-3.62-.1-6.46-.16-8.5-.16q-5,0-10.82.21l0,3.75q0,6.77-.11,9.87a36.65,36.65,0,0,1-.95,7.66c-.56,1.37-1.07,2-1.53,1.9s-.74-1.11-.74-3v-20Q125.92,66.73,121.74,66.94ZM116.3,44.51a16.66,16.66,0,0,0-2.48-.9c-.81-.21-1.18-.46-1.11-.74s.64-.6,1.8-.74a21.29,21.29,0,0,1,5.59.79,1.13,1.13,0,0,1,.69,1.27v4.28l17.79-.42V43.82c-.07-.28-.41-.61-1-1a11.38,11.38,0,0,0-2.43-1.22c-.81-.28-1.2-.54-1.16-.79s.68-.45,1.84-.52c1.55.17,2.77.35,3.65.52a7.32,7.32,0,0,1,1.79.58,1.17,1.17,0,0,1,.64.64,1.43,1.43,0,0,1,0,.79V44.3q0,5.85-.11,8.81-.21,5.24-.69,6.28c-.49,1-1,1.54-1.53,1.64s-.93-.56-1-2.11l-18,.42a11.89,11.89,0,0,1-.48,1.22c-.14.28-.28.54-.42.79-.7.67-1.23.86-1.58.58a3.17,3.17,0,0,1-.48-2l-.16-13.89,0-.47Q117.37,45,116.3,44.51Zm4.49,13.3,17.79-.32v-8L120.79,50Z"/><path class="cls-2" d="M63.73,115.93a1.25,1.25,0,0,0-.06-1.26c-.56-.49-.77-.85-.63-1.06s.72-.3,1.74,0c1.23.46,1.92.93,2.06,1.42.07.29-.09.67-.47,1.17l-.37.58a11.38,11.38,0,0,1,7.07,3.16,8.4,8.4,0,0,1,2.53,6.18,8.15,8.15,0,0,1-3.11,6.55,12.59,12.59,0,0,1-8.34,2.64,11.68,11.68,0,0,1-7.87-2.59,8.73,8.73,0,0,1-3.11-5.86A8.47,8.47,0,0,1,55,120.47,10.56,10.56,0,0,1,62,116.73l.37-.11A1.56,1.56,0,0,0,63.73,115.93ZM58.29,121a7.12,7.12,0,0,0-1.9,5,6.87,6.87,0,0,0,1.9,4.91,7.84,7.84,0,0,0,5.86,2.21,8.75,8.75,0,0,0,6.28-2.21A6.57,6.57,0,0,0,72.6,126a6.68,6.68,0,0,0-2.17-5,8.71,8.71,0,0,0-6.28-2.22A7.81,7.81,0,0,0,58.29,121Zm7.55,29.62a11.43,11.43,0,0,0-2-.64c-.7-.17-1-.35-1-.52s.56-.48,1.69-.69a18.93,18.93,0,0,1,3.69.16,9.27,9.27,0,0,1,2.38.47c3,0,5.15,0,6.49-.05,2.08,0,4.29-.11,6.65-.21l1.16-.11a8.35,8.35,0,0,0,1-.21l.68-.1.48-6.6c-1.31,0-3.31,0-6,.16l-7.5.31L71,142.7a6.25,6.25,0,0,0-1,.26c-.18.07-.41.18-.69.32a2.19,2.19,0,0,1-1.53.26A22.26,22.26,0,0,1,63.88,142c-.7-.42-1-.74-.89-.95s.65-.21,1.63-.1q3.33.25,9.66.21,6-.06,11.57-.42l.84-.27a6.52,6.52,0,0,1,.74-.16c.35,0,.91,0,1.69.11,1.19.07,1.88.26,2.06.58s0,.51-.37,1l-.32.64a23,23,0,0,0-1.06,2.79,22.53,22.53,0,0,0-.84,3c1.37.25,2.09.64,2.16,1.16s-.52.8-1.79.8L71,150.72l-.47.16a1.09,1.09,0,0,0-.37.21.9.9,0,0,0-.11.48v4.8a1.23,1.23,0,0,0,.37,1,1.53,1.53,0,0,0,1,.27h5.81q4.23,0,8.08-.11a9.78,9.78,0,0,0,1.63-.37,3.46,3.46,0,0,0,1-.42,4.74,4.74,0,0,1,1.48-.53,15.4,15.4,0,0,1,3.64,0,2.93,2.93,0,0,1,1.54.58,1.12,1.12,0,0,1,.42,1,1.07,1.07,0,0,1-.48.85,2,2,0,0,1-1.32.42H71.49a6.26,6.26,0,0,1-3.91-.95,2.58,2.58,0,0,1-.9-2.11v-4.54C66.61,151.13,66.33,150.86,65.84,150.62ZM85.9,113.56a14.24,14.24,0,0,0-3.49-1.74c-1-.39-1.47-.74-1.37-1.06s.74-.46,1.9-.53a17.34,17.34,0,0,1,3.27.53c.92.21,1.82.46,2.7.74a4,4,0,0,1,1.69.9,1.45,1.45,0,0,1,.05,1l-.11,1v15.46a36.08,36.08,0,0,1-.21,3.86,20.7,20.7,0,0,1-.68,3.64c-.53,1.3-1.08,1.92-1.64,1.85s-.85-.9-.85-2.48V115.2C87.16,114.67,86.74,114.12,85.9,113.56Z"/><path class="cls-2" d="M116.57,121.05a8.69,8.69,0,0,0-.85.32,2.69,2.69,0,0,1-1.53.32,10.51,10.51,0,0,1-3-1.16c-1.52-.78-2.29-1.36-2.33-1.75s.6-.38,1.9-.1q2.53.31,6.44.42,2.39.06,7.66,0h2.53a4.6,4.6,0,0,0,.79-.16,3.66,3.66,0,0,0,.53-.16,7.94,7.94,0,0,1,.85-.15,10,10,0,0,1,1.74.05c1.37.07,2.13.3,2.27.69.1.21-.09.58-.58,1.1l-.48.64a57.9,57.9,0,0,1-9.18,15.83,70.66,70.66,0,0,1-14.68,12.78c-1.23.7-2,.95-2.16.74s.28-.65,1.37-1.43a69.43,69.43,0,0,0,12.93-13.14A46.67,46.67,0,0,0,129,120.42l-11.14.32A6.64,6.64,0,0,0,116.57,121.05Zm25.71-7.54a16.86,16.86,0,0,0-3.49-1.9c-.88-.36-1.28-.67-1.21-1s.63-.51,1.79-.59a32.67,32.67,0,0,1,4.07.85c.74.21,1.56.49,2.48.84a1.51,1.51,0,0,1,.9.8,3,3,0,0,1,0,1l-.06.79,0,31.89a94.84,94.84,0,0,1-.32,9.61,11.39,11.39,0,0,1-1,3.74c-.49.81-.92,1.13-1.27,1s-.58-1-.58-2.32v-43A3,3,0,0,0,142.28,113.51Z"/></g></g></svg>